<svg width="25" height="25" viewBox="0 0 25 25" fill="none" xmlns="http://www.w3.org/2000/svg">
<path d="M9.5 11.4355L15.5 7.93555L20.8294 10.9635C21.9686 11.6101 22.5155 12.9897 22.4999 14.4355C22.4757 16.6714 21 18.9355 18.5 18.9355" stroke="white" stroke-width="1.5" stroke-linejoin="round"/>
<path d="M12.5 9.43555L18.5 12.9355V18.9355C18.5 21.0629 15.9307 22.9222 13.5 22.9355C12.126 22.943 10.7963 22.2926 10 20.9355" stroke="white" stroke-width="1.5" stroke-linejoin="round"/>
<path d="M15.4998 11.4355V17.9648L10.0534 21.0527C7.14159 22.7066 1.93065 18.6911 3.9556 14.9513" stroke="white" stroke-width="1.5" stroke-linejoin="round"/>
<path d="M15.4995 14.4355L9.49948 17.9355L4.17395 14.9074C2.97315 14.2251 2.5 12.9355 2.5 11.4355C2.49959 8.93555 4.5 6.43555 7 6.43555" stroke="white" stroke-width="1.5" stroke-linejoin="round"/>
<path d="M12.5 16.4355L6.5 12.9355V6.93551C6.5 4.81866 9 2.93555 11.5 2.93555C13 2.93555 14.1967 3.56648 15 4.93555" stroke="white" stroke-width="1.5" stroke-linejoin="round"/>
<path d="M9.5 14.4355V7.93236L14.9293 4.81833C17.3086 3.46906 21.5 5.89137 21.5 8.88859C21.5 9.88773 21.3263 10.3031 20.9098 11.0123" stroke="white" stroke-width="1.5" stroke-linejoin="round"/>
</svg>
