<svg width="165" height="166" viewBox="0 0 165 166" fill="none" xmlns="http://www.w3.org/2000/svg">
<g filter="url(#filter0_f_1646_355)">
<circle cx="82.3181" cy="82.8621" r="33.48" transform="rotate(-14.5333 82.3181 82.8621)" fill="url(#paint0_linear_1646_355)" fill-opacity="0.8"/>
</g>
<path d="M107.191 96.181L68.6096 106.183L58.6077 67.601C58.5016 67.1917 58.2373 66.8413 57.8728 66.627C57.5084 66.4126 57.0737 66.3517 56.6644 66.4578C56.2551 66.5639 55.9047 66.8283 55.6903 67.1927C55.4759 67.5572 55.4151 67.9919 55.5212 68.4012L65.9231 108.526C66.0292 108.936 66.2936 109.286 66.658 109.5C67.0225 109.715 67.4571 109.776 67.8664 109.669L107.992 99.2675C108.401 99.1614 108.751 98.8971 108.966 98.5326C109.18 98.1682 109.241 97.7335 109.135 97.3242C109.029 96.9149 108.764 96.5645 108.4 96.3501C108.035 96.1357 107.601 96.0749 107.191 96.181Z" fill="white"/>
<path d="M71.6359 98.8094L73.1791 98.4093L73.5792 99.9526C73.6853 100.362 73.9497 100.712 74.3141 100.927C74.6786 101.141 75.1133 101.202 75.5226 101.096C75.9319 100.99 76.2822 100.725 76.4966 100.361C76.711 99.9964 76.7719 99.5617 76.6658 99.1524L76.2657 97.6091L77.809 97.2091C78.2183 97.103 78.5686 96.8386 78.783 96.4742C78.9974 96.1097 79.0583 95.675 78.9522 95.2657L76.5517 86.0061C76.4456 85.5968 76.1812 85.2464 75.8168 85.032C75.4523 84.8176 75.0177 84.7568 74.6084 84.8629L73.0651 85.263L70.2646 74.4601C70.1585 74.0508 69.8941 73.7004 69.5297 73.486C69.1652 73.2716 68.7305 73.2108 68.3212 73.3169C67.9119 73.423 67.5615 73.6873 67.3471 74.0518C67.1328 74.4162 67.0719 74.8509 67.178 75.2602L69.9785 86.0631L68.4353 86.4632C68.026 86.5693 67.6756 86.8336 67.4612 87.1981C67.2468 87.5625 67.186 87.9972 67.2921 88.4065L69.6925 97.6662C69.7986 98.0755 70.063 98.4259 70.4274 98.6402C70.7919 98.8546 71.2266 98.9155 71.6359 98.8094ZM70.7787 89.1497L73.8652 88.3495L75.4655 94.5226L72.379 95.3227L70.7787 89.1497Z" fill="white"/>
<path d="M83.5281 87.4923L85.0714 87.0922L87.0718 94.8086C87.1779 95.2179 87.4422 95.5683 87.8067 95.7826C88.1711 95.997 88.6058 96.0579 89.0151 95.9518C89.4244 95.8457 89.7748 95.5813 89.9892 95.2169C90.2036 94.8524 90.2644 94.4177 90.1583 94.0084L88.1579 86.2921L89.7012 85.892C90.1105 85.7859 90.4609 85.5215 90.6753 85.1571C90.8897 84.7926 90.9505 84.3579 90.8444 83.9486L86.0435 65.4294C85.9374 65.0201 85.6731 64.6697 85.3086 64.4553C84.9442 64.2409 84.5095 64.1801 84.1002 64.2862L82.5569 64.6863L81.7568 61.5997C81.6506 61.1904 81.3863 60.84 81.0218 60.6256C80.6574 60.4112 80.2227 60.3504 79.8134 60.4565C79.4041 60.5626 79.0537 60.827 78.8393 61.1914C78.6249 61.5559 78.5641 61.9906 78.6702 62.3999L79.4704 65.4864L77.9271 65.8865C77.5178 65.9926 77.1674 66.2569 76.953 66.6214C76.7386 66.9858 76.6778 67.4205 76.7839 67.8298L81.5848 86.3491C81.6909 86.7584 81.9552 87.1088 82.3197 87.3232C82.6841 87.5376 83.1188 87.5984 83.5281 87.4923ZM80.2705 68.5729L83.3571 67.7728L87.3578 83.2055L84.2713 84.0057L80.2705 68.5729Z" fill="white"/>
<path d="M99.5917 66.861L98.0485 67.2611L96.4482 61.088C96.3421 60.6787 96.0777 60.3283 95.7133 60.1139C95.3488 59.8995 94.9141 59.8387 94.5048 59.9448C94.0955 60.0509 93.7451 60.3153 93.5307 60.6797C93.3163 61.0442 93.2555 61.4788 93.3616 61.8881L94.9619 68.0612L93.4186 68.4613C93.0093 68.5674 92.659 68.8318 92.4446 69.1962C92.2302 69.5607 92.1693 69.9953 92.2754 70.4046L96.2762 85.8374C96.3823 86.2467 96.6467 86.5971 97.0111 86.8114C97.3755 87.0258 97.8102 87.0867 98.2195 86.9806L99.7628 86.5805L100.163 88.1238C100.269 88.5331 100.533 88.8835 100.898 89.0978C101.262 89.3122 101.697 89.3731 102.106 89.267C102.516 89.1609 102.866 88.8965 103.08 88.5321C103.295 88.1676 103.356 87.7329 103.249 87.3236L102.849 85.7803L104.393 85.3803C104.802 85.2742 105.152 85.0098 105.367 84.6454C105.581 84.2809 105.642 83.8462 105.536 83.4369L101.535 68.0042C101.429 67.5949 101.165 67.2445 100.8 67.0301C100.436 66.8157 100.001 66.7549 99.5917 66.861ZM102.049 82.6938L98.9627 83.4939L95.7621 71.1478L98.8486 70.3476L102.049 82.6938Z" fill="white"/>
<defs>
<filter id="filter0_f_1646_355" x="0.0961227" y="0.642021" width="164.441" height="164.44" filterUnits="userSpaceOnUse" color-interpolation-filters="sRGB">
<feFlood flood-opacity="0" result="BackgroundImageFix"/>
<feBlend mode="normal" in="SourceGraphic" in2="BackgroundImageFix" result="shape"/>
<feGaussianBlur stdDeviation="24.366" result="effect1_foregroundBlur_1646_355"/>
</filter>
<linearGradient id="paint0_linear_1646_355" x1="119.983" y1="45.1971" x2="40.4681" y2="120.527" gradientUnits="userSpaceOnUse">
<stop stop-color="#49D3FF"/>
<stop offset="0.781126" stop-color="#AD00FF"/>
</linearGradient>
</defs>
</svg>
