<svg width="167" height="39" viewBox="0 0 167 39" fill="none" xmlns="http://www.w3.org/2000/svg">
<g clip-path="url(#clip0_834_5252)">
<path d="M17.8806 28.9579C16.8603 28.3184 15.84 28.1988 10.6214 28.0328C7.27733 27.9376 5.97144 27.8668 5.54428 27.7472C5.04634 27.6301 4.83154 27.3201 4.83154 26.7269C4.83154 25.5651 5.1635 25.4699 9.2447 25.4699C12.6595 25.4699 13.2527 25.5162 13.6579 25.753C14.0142 25.9678 14.085 26.1802 14.1314 27.0589H18.7813C18.8057 26.7513 18.8057 26.4194 18.8057 26.3242C18.8057 24.4497 18.425 23.4538 17.4779 22.8143C16.3624 22.0551 14.7026 21.8428 10.099 21.8428C6.30341 21.8428 4.12123 21.938 3.19613 22.1284C1.01395 22.6019 0.159641 23.9542 0.159641 26.9686C0.159641 30.4566 1.25072 31.4525 5.16594 31.5721L6.44742 31.621L9.01038 31.7381L12.806 31.8797C14.3486 31.9041 14.705 32.1409 14.705 33.0904C14.705 34.489 14.705 34.489 9.53273 34.489C6.13987 34.489 5.61751 34.4426 5.16839 34.1571C4.79004 33.9203 4.69485 33.6127 4.69485 32.6632H0.0205078V33.4223C0.0205078 35.6045 0.376878 36.5296 1.46796 37.218C2.58346 37.9307 4.50446 38.1431 9.41557 38.1431C14.1363 38.1431 16.1281 38.0259 17.0776 37.6695C18.7154 37.052 19.3794 35.6997 19.3794 32.9488C19.3745 30.7373 18.9717 29.6707 17.8806 28.9579Z" fill="white"/>
<path d="M20.1357 26.1115H27.1826V37.901H32.2353V26.1115H39.2822V22.0791H20.1357V26.1115Z" fill="white"/>
<path d="M60.5403 22.9339C59.3296 22.0088 57.8602 21.8428 51.2405 21.8428C44.6207 21.8428 43.1513 22.0088 41.9406 22.9339C40.7299 23.859 40.376 25.4723 40.376 29.8855C40.376 34.5354 40.7079 36.1 41.9406 37.0495C43.1513 37.9746 44.6207 38.1406 51.2868 38.1406C57.8334 38.1406 59.3296 37.9746 60.5379 37.0495C61.7486 36.1244 62.1049 34.5354 62.1049 29.9807C62.1049 25.4479 61.7486 23.859 60.5403 22.9339ZM56.5787 33.4663C55.9392 33.9398 55.1557 34.035 51.2868 34.035C47.3008 34.035 46.5417 33.9642 45.9022 33.4663C45.3335 33.0147 45.1894 32.3752 45.1894 30.4054C45.1894 28.3892 45.2846 27.4885 45.5702 26.9417C46.0438 26.0166 46.4953 25.9458 51.2405 25.9458C55.6536 25.9458 56.176 26.0166 56.7203 26.6586C57.1475 27.1809 57.289 28.0816 57.289 30.4298C57.289 32.3508 57.1231 33.0391 56.5787 33.4663Z" fill="white"/>
<path d="M79.0252 31.8065C79.0008 34.1546 78.93 34.179 73.6405 34.179C68.5635 34.179 68.4927 34.1302 68.4927 30.0734C68.4927 27.6764 68.6831 26.7513 69.2518 26.2778C69.7253 25.897 70.6041 25.8043 73.6161 25.8043C76.6526 25.8043 78.0537 25.9458 78.4076 26.2558C78.6932 26.4926 78.7396 26.7074 78.7884 27.7497H83.6043V26.9661C83.6043 24.4277 83.1308 23.2658 81.7785 22.5775C80.6875 22.0088 79.2156 21.8428 74.9928 21.8428C66.7132 21.8428 64.9826 22.2455 64.1283 24.3813C63.772 25.2599 63.6768 26.5634 63.6768 30.0978C63.6768 32.114 63.7231 33.4199 63.7939 34.1302C63.9843 35.7437 64.4578 36.6199 65.5026 37.2155C66.784 37.9502 68.7758 38.1406 74.9684 38.1406C78.4784 38.1406 80.2115 37.9991 81.493 37.5939C83.248 37.0251 83.9119 35.8633 83.9119 33.3003C83.9119 33.0635 83.8875 32.7072 83.8631 31.8065H79.0252Z" fill="white"/>
<path d="M114.778 14.288L114.031 13.6997L93 27.8204H90.3687V22.0793H85.5527V37.9013H90.3687V31.8527H93L100.096 37.9013H107.401L97.4839 29.8366L114.778 14.288Z" fill="#28A942"/>
<path d="M130.557 33.915H129.657L126.054 22.0791H120.24L116.656 33.915H115.778L111.609 22.1743L107.908 25.3475L112.575 37.901H120.047L123.179 26.2994L126.359 37.901H133.787L139.928 22.0791H134.827L130.557 33.915Z" fill="white"/>
<path d="M145.794 22.0791H140.741V37.9035H145.794V22.0791Z" fill="white"/>
<path d="M155.023 34.1054L166.601 25.7087V22.0791H147.647V26.0407L158.819 25.8747L147.386 34.2006V37.901H166.957V33.9395L155.023 34.1054Z" fill="white"/>
<path d="M117.343 21.4347L116.687 14.8076C116.548 14.8076 116.406 14.8003 116.267 14.7832L114.854 21.2931C115.676 21.4371 116.511 21.4859 117.343 21.4347Z" fill="#28A942"/>
<path d="M113.24 9.45488L107.487 6.09863C107.091 6.83579 106.789 7.61932 106.581 8.43214L113.091 9.8381C113.135 9.7063 113.184 9.57937 113.24 9.45488Z" fill="#28A942"/>
<path d="M114.326 8.05874C114.48 7.93426 114.646 7.82197 114.819 7.7219L112.129 1.62939C111.358 2.00529 110.638 2.47395 109.979 3.02803L112.341 5.56169L114.326 8.05874Z" fill="#28A942"/>
<path d="M117.111 7.25316L118.514 0.740821C117.692 0.594366 116.857 0.547989 116.024 0.601689L116.693 7.22875C116.832 7.22875 116.971 7.23607 117.111 7.25316Z" fill="#28A942"/>
<path d="M112.981 11.7812L106.354 12.4452C106.468 13.2751 106.681 14.0855 106.988 14.8641L113.086 12.1816C113.044 12.0498 113.007 11.9179 112.981 11.7812Z" fill="#28A942"/>
<path d="M124.206 3.77459C123.626 3.16924 122.976 2.63956 122.271 2.19531L118.922 7.95343C119.034 8.03398 119.142 8.12185 119.242 8.21704L124.206 3.77459Z" fill="#28A942"/>
<path d="M120.147 12.5741L125.908 15.9182C126.301 15.181 126.601 14.3999 126.809 13.5847L120.296 12.1885C120.252 12.3203 120.204 12.4497 120.147 12.5741Z" fill="#28A942"/>
<path d="M120.401 10.2455L127.028 9.57421C126.913 8.74431 126.698 7.93392 126.388 7.15527L120.296 9.8476C120.337 9.97696 120.374 10.1112 120.401 10.2455Z" fill="#28A942"/>
<path d="M123.399 19.0131L121.17 16.5918L118.971 14.0435C118.839 14.1435 118.7 14.2338 118.559 14.3144L121.236 20.4142C122.012 20.0383 122.737 19.5697 123.399 19.0131Z" fill="#28A942"/>
</g>
<defs>
<clipPath id="clip0_834_5252">
<rect width="166.958" height="37.59" fill="white" transform="translate(0.0205078 0.580078)"/>
</clipPath>
</defs>
</svg>
