<svg width="283" height="68" viewBox="0 0 283 68" fill="none" xmlns="http://www.w3.org/2000/svg">
<g clip-path="url(#clip0_1743_3256)">
<path d="M30.2736 51.516C28.5441 50.3761 26.8147 50.1629 17.9688 49.8671C12.3006 49.6974 10.087 49.5712 9.363 49.358C8.51896 49.1492 8.15487 48.5967 8.15487 47.5395C8.15487 45.4686 8.71756 45.2989 15.6353 45.2989C21.4236 45.2989 22.429 45.3815 23.1158 45.8036C23.7199 46.1864 23.8399 46.5649 23.9185 48.1311H31.8003C31.8416 47.583 31.8416 46.9913 31.8416 46.8216C31.8416 43.4805 31.1962 41.7054 29.5909 40.5655C27.7001 39.2125 24.8866 38.834 17.0834 38.834C10.6497 38.834 6.95088 39.0037 5.38279 39.343C1.68392 40.187 0.235836 42.5973 0.235836 47.9702C0.235836 54.1873 2.08526 55.9623 8.7217 56.1755L10.8938 56.2625L15.2381 56.4713L21.6718 56.7237C24.2867 56.7672 24.8908 57.1892 24.8908 58.8816C24.8908 61.3745 24.8908 61.3745 16.1236 61.3745C10.3725 61.3745 9.48712 61.2919 8.72583 60.7828C8.08453 60.3608 7.92317 59.8126 7.92317 58.1202H0V59.4733C0 63.3628 0.60406 65.0117 2.45349 66.2386C4.3443 67.5089 7.60045 67.8874 15.925 67.8874C23.9267 67.8874 27.3029 67.6786 28.9123 67.0434C31.6886 65.9427 32.8139 63.5324 32.8139 58.6293C32.8057 54.6876 32.123 52.7863 30.2736 51.516Z" fill="white"/>
<path d="M34.0977 46.4431H46.0423V67.4567H54.6068V46.4431H66.5516V39.2559H34.0977V46.4431Z" fill="white"/>
<path d="M102.582 40.7787C100.529 39.1298 98.0387 38.834 86.818 38.834C75.5973 38.834 73.1066 39.1298 71.0544 40.7787C69.0023 42.4276 68.4023 45.3032 68.4023 53.1692C68.4023 61.4572 68.965 64.246 71.0544 65.9384C73.1066 67.5872 75.5973 67.8831 86.8966 67.8831C97.9932 67.8831 100.529 67.5872 102.577 65.9384C104.63 64.2895 105.234 61.4572 105.234 53.3389C105.234 45.2597 104.63 42.4276 102.582 40.7787ZM95.8666 59.5516C94.7826 60.3956 93.4545 60.5653 86.8966 60.5653C80.1402 60.5653 78.8535 60.4391 77.7695 59.5516C76.8055 58.7467 76.5613 57.6069 76.5613 54.0959C76.5613 50.5023 76.7227 48.8969 77.2068 47.9223C78.0094 46.2734 78.7749 46.1473 86.818 46.1473C94.2985 46.1473 95.1839 46.2734 96.1066 47.4176C96.8306 48.3487 97.0706 49.9541 97.0706 54.1394C97.0706 57.5634 96.7892 58.7902 95.8666 59.5516Z" fill="white"/>
<path d="M133.915 56.5932C133.873 60.7785 133.753 60.822 124.787 60.822C116.182 60.822 116.062 60.735 116.062 53.5042C116.062 49.2319 116.384 47.583 117.348 46.7389C118.151 46.0602 119.64 45.8949 124.746 45.8949C129.893 45.8949 132.268 46.1473 132.868 46.6998C133.352 47.1218 133.431 47.5047 133.513 49.3624H141.676V47.9658C141.676 43.4413 140.874 41.3704 138.582 40.1435C136.732 39.1298 134.237 38.834 127.08 38.834C113.045 38.834 110.112 39.5518 108.664 43.3587C108.06 44.9247 107.898 47.248 107.898 53.5477C107.898 57.1413 107.977 59.4689 108.097 60.735C108.42 63.6108 109.222 65.1726 110.993 66.2342C113.165 67.5437 116.542 67.8831 127.038 67.8831C132.988 67.8831 135.925 67.6308 138.098 66.9086C141.072 65.8949 142.198 63.8239 142.198 59.2558C142.198 58.8337 142.156 58.1986 142.115 56.5932H133.915Z" fill="white"/>
<path d="M194.518 25.3688L193.252 24.3203L157.604 49.4888H153.144V39.2561H144.98V67.457H153.144V56.6761H157.604L169.631 67.457H182.015L165.204 53.0825L194.518 25.3688Z" fill="#14A800"/>
<path d="M221.266 60.3521H219.739L213.633 39.2559H203.777L197.704 60.3521H196.214L189.147 39.4255L182.875 45.0813L190.786 67.4567H203.45L208.759 46.7781L214.15 67.4567H226.74L237.15 39.2559H228.503L221.266 60.3521Z" fill="white"/>
<path d="M247.092 39.2559H238.527V67.4611H247.092V39.2559Z" fill="white"/>
<path d="M262.735 60.6915L282.359 45.7252V39.2559H250.232V46.3169L269.169 46.0211L249.789 60.8611V67.4567H282.963V60.3956L262.735 60.6915Z" fill="white"/>
<path d="M198.865 38.1075L197.752 26.2955C197.516 26.2955 197.276 26.2824 197.04 26.252L194.645 37.8551C196.039 38.1118 197.454 38.1988 198.865 38.1075Z" fill="#14A800"/>
<path d="M191.912 16.7536L182.16 10.7715C181.49 12.0854 180.977 13.4819 180.625 14.9307L191.66 17.4367C191.734 17.2017 191.817 16.9755 191.912 16.7536Z" fill="#14A800"/>
<path d="M193.752 14.2662C194.012 14.0444 194.294 13.8442 194.587 13.6658L190.028 2.80664C188.72 3.47664 187.5 4.31196 186.383 5.29955L190.388 9.81552L193.752 14.2662Z" fill="#14A800"/>
<path d="M198.474 12.8296L200.853 1.22205C199.459 0.961014 198.044 0.878352 196.633 0.974066L197.766 12.7861C198.002 12.7861 198.238 12.7991 198.474 12.8296Z" fill="#14A800"/>
<path d="M191.471 20.9004L180.238 22.0838C180.433 23.563 180.793 25.0074 181.314 26.3953L191.649 21.6139C191.579 21.379 191.517 21.144 191.471 20.9004Z" fill="#14A800"/>
<path d="M210.5 6.62934C209.516 5.55038 208.415 4.60627 207.22 3.81445L201.543 14.0777C201.733 14.2212 201.915 14.3778 202.085 14.5475L210.5 6.62934Z" fill="#14A800"/>
<path d="M203.617 22.3144L213.382 28.2747C214.048 26.9608 214.557 25.5686 214.908 24.1155L203.87 21.627C203.795 21.8619 203.712 22.0925 203.617 22.3144Z" fill="#14A800"/>
<path d="M204.049 18.1622L215.282 16.9658C215.088 15.4866 214.724 14.0422 214.198 12.6543L203.871 17.4531C203.941 17.6836 204.003 17.9229 204.049 18.1622Z" fill="#14A800"/>
<path d="M209.13 33.7896L205.353 29.4737L201.625 24.9316C201.402 25.11 201.166 25.271 200.926 25.4146L205.465 36.2868C206.78 35.6168 208.009 34.7815 209.13 33.7896Z" fill="#14A800"/>
</g>
<defs>
<clipPath id="clip0_1743_3256">
<rect width="283" height="67" fill="white" transform="translate(0 0.935547)"/>
</clipPath>
</defs>
</svg>
