<svg width="19" height="19" viewBox="0 0 19 19" fill="none" xmlns="http://www.w3.org/2000/svg">
<path d="M13.4134 5.27404L12.7549 6.41458L10.4585 5.08876L11.117 3.94821C11.3026 3.62672 11.5963 3.41862 11.9223 3.33127C12.2483 3.24392 12.6066 3.27731 12.9281 3.46293C13.5634 3.82974 13.7802 4.6387 13.4134 5.27404Z" fill="url(#paint0_linear_1646_2976)"/>
<path d="M12.4482 6.95597L7.66923 15.2246C7.30242 15.86 6.49346 16.0767 5.85812 15.7099C5.22278 15.3431 5.00602 14.5341 5.37283 13.8988L10.1518 5.63015L12.4482 6.95597Z" fill="url(#paint1_linear_1646_2976)"/>
<path d="M7.00241 4.40388L7.02508 3.49841C7.0282 3.41346 6.98141 3.33541 6.9109 3.2896C6.84039 3.24379 6.73732 3.24552 6.66531 3.2907L5.89249 3.76306L4.98702 3.74039C4.90206 3.73728 4.82402 3.78407 4.7782 3.85458C4.73401 3.93113 4.73855 4.0205 4.78372 4.09251L5.25167 4.87299L5.229 5.77846C5.22588 5.86341 5.27268 5.94146 5.34319 5.98727C5.41973 6.03147 5.5091 6.02693 5.58112 5.98175L6.3616 5.5138L7.26707 5.53647C7.29283 5.53604 7.31256 5.53722 7.33671 5.53075C7.39708 5.51458 7.44494 5.47587 7.48192 5.42067C7.52611 5.34412 7.52157 5.25475 7.4764 5.18274L7.00241 4.40388Z" fill="url(#paint2_linear_1646_2976)"/>
<path d="M5.5571 8.67292L5.57977 7.76745C5.58289 7.6825 5.53609 7.60445 5.46558 7.55864C5.38904 7.51445 5.29967 7.51898 5.22765 7.56416L4.44717 8.03211L3.5417 8.00944C3.45675 8.00632 3.3787 8.05311 3.33289 8.12362C3.2887 8.20017 3.29323 8.28954 3.33841 8.36155L3.80636 9.14203L3.78369 10.0475C3.78057 10.1325 3.82736 10.2105 3.89787 10.2563C3.97442 10.3005 4.06379 10.296 4.1358 10.2508L4.90863 9.77843L5.8141 9.8011C5.83383 9.80228 5.85798 9.79581 5.88212 9.78934C5.94249 9.77316 5.99036 9.73446 6.02733 9.67926C6.07152 9.60271 6.06699 9.51334 6.02181 9.44133L5.5571 8.67292Z" fill="url(#paint3_linear_1646_2976)"/>
<path d="M15.4236 9.26508L15.4462 8.35961C15.4494 8.27466 15.4026 8.19661 15.3321 8.1508C15.2555 8.10661 15.1661 8.11114 15.0941 8.15632L14.3213 8.62869L13.4158 8.60602C13.3309 8.6029 13.2528 8.64969 13.207 8.7202C13.1628 8.79675 13.1674 8.88612 13.2125 8.95813L13.6849 9.73096L13.6622 10.6364C13.6591 10.7214 13.7059 10.7994 13.7764 10.8452C13.853 10.8894 13.9423 10.8849 14.0143 10.8397L14.7872 10.3674L15.6926 10.39C15.7124 10.3912 15.7365 10.3847 15.7607 10.3783C15.821 10.3621 15.8689 10.3234 15.9059 10.2682C15.9501 10.1916 15.9455 10.1023 15.9004 10.0303L15.4236 9.26508Z" fill="url(#paint4_linear_1646_2976)"/>
<defs>
<linearGradient id="paint0_linear_1646_2976" x1="12.4874" y1="3.40134" x2="11.6613" y2="6.48681" gradientUnits="userSpaceOnUse">
<stop stop-color="#FF8C21"/>
<stop offset="1" stop-color="#E6F294"/>
</linearGradient>
<linearGradient id="paint1_linear_1646_2976" x1="9.941" y1="6.31177" x2="7.61019" y2="15.0209" gradientUnits="userSpaceOnUse">
<stop stop-color="#FF8C21"/>
<stop offset="1" stop-color="#E6F294"/>
</linearGradient>
<linearGradient id="paint2_linear_1646_2976" x1="6.43122" y1="3.50617" x2="5.82309" y2="5.77275" gradientUnits="userSpaceOnUse">
<stop stop-color="#FF8C21"/>
<stop offset="1" stop-color="#E6F294"/>
</linearGradient>
<linearGradient id="paint3_linear_1646_2976" x1="4.98502" y1="7.77489" x2="4.38145" y2="10.0362" gradientUnits="userSpaceOnUse">
<stop stop-color="#FF8C21"/>
<stop offset="1" stop-color="#E6F294"/>
</linearGradient>
<linearGradient id="paint4_linear_1646_2976" x1="14.8608" y1="8.36961" x2="14.2589" y2="10.6262" gradientUnits="userSpaceOnUse">
<stop stop-color="#FF8C21"/>
<stop offset="1" stop-color="#E6F294"/>
</linearGradient>
</defs>
</svg>
