<svg width="21" height="20" viewBox="0 0 21 20" fill="none" xmlns="http://www.w3.org/2000/svg">
<path d="M1.09008 2.87131C1.28485 2.36548 1.38223 2.11257 1.71245 2.03564C2.04266 1.95871 2.28073 2.17849 2.75685 2.61806L9.8397 9.157C10.3165 9.59716 10.5549 9.81732 10.5549 10.0975C10.5549 10.3776 10.3165 10.5978 9.8397 11.038L2.81178 17.5261C2.35037 17.9521 2.11965 18.1652 1.79568 18.0962C1.4717 18.0273 1.36882 17.7879 1.16303 17.309C0.914882 16.7317 0.770513 16.0877 0.679553 15.4036C0.499937 14.0525 0.499969 12.2847 0.500001 10.0917V9.90948C0.499969 7.71652 0.499937 5.94859 0.679553 4.59757C0.761201 3.98337 0.885906 3.40156 1.09008 2.87131Z" fill="white"/>
<path d="M4.21876 0.701029C4.02463 0.521813 4.08872 0.20314 4.34429 0.136148C5.6037 -0.193932 6.88377 0.110628 8.25753 0.679541C9.6177 1.24279 11.2849 2.16155 13.3868 3.31976L13.5246 3.39571C14.0007 3.65809 14.4532 3.90739 14.8811 4.14579C15.5643 4.52643 15.9059 4.71675 15.9444 5.04112C15.9832 5.36549 15.6929 5.63343 15.1124 6.16928L13.4955 7.6621C13.0835 8.04258 12.8774 8.23266 12.6271 8.23266C12.3769 8.23266 12.171 8.04258 11.759 7.6621L4.21876 0.701029Z" fill="white"/>
<path d="M17.6594 7.08486C18.0507 6.7236 18.2463 6.54296 18.5051 6.54897C18.764 6.55501 18.9306 6.72379 19.2637 7.06134C19.7936 7.59846 20.192 8.20342 20.3698 8.92871C20.5426 9.63463 20.5426 10.3673 20.3698 11.073C20.1797 11.849 19.7368 12.4873 19.1508 13.0521C18.8112 13.3791 18.6415 13.5426 18.3872 13.5454C18.1331 13.5481 17.9402 13.37 17.5544 13.0138L15.4146 11.0383C14.9378 10.5982 14.6992 10.378 14.6992 10.0978C14.6992 9.81767 14.9378 9.59751 15.4146 9.15735L17.6594 7.08486Z" fill="white"/>
<path d="M14.7492 15.9293C15.4354 15.5478 15.7785 15.3571 15.8174 15.0326C15.8561 14.708 15.5652 14.4393 14.9831 13.9021L13.4986 12.5315C13.0866 12.1512 12.8806 11.9609 12.6303 11.9609C12.3801 11.9609 12.1742 12.1512 11.7622 12.5315L4.2551 19.4621C4.11728 19.5893 4.16601 19.8163 4.34747 19.8638C5.60688 20.1939 6.88695 19.8893 8.26071 19.3205C9.62088 18.7571 11.2881 17.8384 13.3898 16.6801L13.5278 16.6043C13.9542 16.3693 14.3615 16.1448 14.7492 15.9293Z" fill="white"/>
</svg>
