<svg width="166" height="165" viewBox="0 0 166 165" fill="none" xmlns="http://www.w3.org/2000/svg">
<g filter="url(#filter0_f_1646_384)">
<circle cx="83.0152" cy="82.3234" r="33.48" transform="rotate(-7.57461 83.0152 82.3234)" fill="url(#paint0_linear_1646_384)" fill-opacity="0.8"/>
</g>
<path fill-rule="evenodd" clip-rule="evenodd" d="M86.8139 69.1532C82.6132 69.7118 79.6607 73.57 80.2193 77.7707C80.3209 78.5345 79.7841 79.236 79.0203 79.3375C78.2565 79.4391 77.555 78.9023 77.4534 78.1385C76.6917 72.4102 80.7179 67.1491 86.4461 66.3874C87.2099 66.2858 87.9114 66.8226 88.0129 67.5864C88.1145 68.3502 87.5777 69.0516 86.8139 69.1532Z" fill="white"/>
<path fill-rule="evenodd" clip-rule="evenodd" d="M73.9763 66.164C79.8294 58.5155 90.7747 57.06 98.4232 62.9131C106.072 68.7662 107.527 79.7114 101.674 87.3599C96.8511 93.6624 88.5704 95.7598 81.526 93.028L72.5211 104.795C70.8822 106.937 67.8175 107.344 65.676 105.705C63.5344 104.066 63.1269 101.002 64.7657 98.8603L73.7706 87.0931C69.2928 81.0074 69.1533 72.4664 73.9763 66.164ZM96.7275 65.1289C90.3027 60.2123 81.1088 61.4349 76.1922 67.8597C71.2755 74.2844 72.4981 83.4783 78.9229 88.3949C85.3477 93.3116 94.5416 92.089 99.4582 85.6642C104.375 79.2395 103.152 70.0455 96.7275 65.1289ZM77.2272 90.6108C77.7896 91.0412 78.3699 91.4321 78.9646 91.7838L76.5461 94.9442L73.2224 92.4007L75.6409 89.2403C76.1359 89.7225 76.6648 90.1804 77.2272 90.6108ZM71.5268 94.6165L66.9815 100.556C66.2792 101.474 66.4538 102.787 67.3716 103.489C68.2895 104.192 69.6029 104.017 70.3053 103.099L74.8504 97.16L71.5268 94.6165Z" fill="white"/>
<defs>
<filter id="filter0_f_1646_384" x="0.799248" y="0.107353" width="164.433" height="164.432" filterUnits="userSpaceOnUse" color-interpolation-filters="sRGB">
<feFlood flood-opacity="0" result="BackgroundImageFix"/>
<feBlend mode="normal" in="SourceGraphic" in2="BackgroundImageFix" result="shape"/>
<feGaussianBlur stdDeviation="24.366" result="effect1_foregroundBlur_1646_384"/>
</filter>
<linearGradient id="paint0_linear_1646_384" x1="120.68" y1="44.6585" x2="41.1652" y2="119.988" gradientUnits="userSpaceOnUse">
<stop offset="0.204351" stop-color="#49FFB3"/>
<stop offset="1" stop-color="#5200FF"/>
</linearGradient>
</defs>
</svg>
