<svg width="91" height="91" viewBox="0 0 91 91" fill="none" xmlns="http://www.w3.org/2000/svg">
<g opacity="0.56" filter="url(#filter0_f_1206_6083)">
<path d="M33.8475 32.0269L14.5856 34.9497L14.2445 35.0224C13.728 35.1659 13.2572 35.4503 12.8801 35.8465C12.503 36.2427 12.2331 36.7366 12.0981 37.2776C11.963 37.8187 11.9675 38.3876 12.1112 38.9263C12.255 39.4649 12.5327 39.954 12.916 40.3435L26.8703 54.5596L23.5795 74.6403L23.5403 74.9879C23.5087 75.5469 23.6196 76.1047 23.8616 76.6041C24.1037 77.1036 24.4683 77.5267 24.918 77.8302C25.3677 78.1337 25.8864 78.3066 26.4209 78.3313C26.9555 78.356 27.4867 78.2316 27.9602 77.9707L45.1872 68.4913L62.375 77.9707L62.6769 78.1161C63.1752 78.3215 63.7168 78.3845 64.2461 78.2986C64.7753 78.2127 65.2732 77.9809 65.6887 77.6272C66.1042 77.2734 66.4222 76.8103 66.6103 76.2854C66.7983 75.7605 66.8495 75.1927 66.7587 74.6403L63.4648 54.5596L77.4252 40.3404L77.6607 40.0718C77.997 39.6382 78.2176 39.119 78.2999 38.5671C78.3821 38.0152 78.3231 37.4503 78.1289 36.9301C77.9347 36.4098 77.6121 35.9527 77.1942 35.6054C76.7762 35.2581 76.2777 35.0329 75.7496 34.9529L56.4877 32.0269L47.8772 13.7631C47.6281 13.2339 47.2424 12.7883 46.7638 12.4767C46.2851 12.1651 45.7328 12 45.1691 12C44.6054 12 44.0531 12.1651 43.5744 12.4767C43.0958 12.7883 42.7101 13.2339 42.461 13.7631L33.8475 32.0269Z" fill="url(#paint0_linear_1206_6083)" fill-opacity="0.24"/>
<path d="M33.96 32.7684L34.3553 32.7084L34.5258 32.3468L43.1393 14.083L43.1395 14.0826C43.3308 13.6762 43.6247 13.339 43.9836 13.1053C44.3422 12.8718 44.7528 12.75 45.1691 12.75C45.5854 12.75 45.996 12.8718 46.3546 13.1053C46.7135 13.339 47.0074 13.6762 47.1987 14.0826L47.1988 14.0829L55.8093 32.3467L55.9798 32.7083L56.3751 32.7684L75.6369 35.6944L75.6372 35.6944C76.0279 35.7536 76.4 35.9206 76.7148 36.1822C77.0299 36.4441 77.2767 36.7918 77.4263 37.1924C77.5759 37.5931 77.6217 38.0296 77.5581 38.4565C77.4955 38.8762 77.3299 39.2685 77.0808 39.5955L76.8752 39.83L62.9297 54.0342L62.6632 54.3056L62.7247 54.681L66.0186 74.7617L66.0186 74.7619C66.0889 75.1892 66.0491 75.6281 65.9042 76.0325C65.7594 76.4367 65.5159 76.7893 65.2025 77.0561C64.8893 77.3228 64.5175 77.4947 64.1259 77.5583C63.741 77.6208 63.3467 77.577 62.9813 77.4303L62.719 77.304L45.5494 67.8345L45.1876 67.635L44.8256 67.8342L27.5987 77.3136L27.5984 77.3138C27.2447 77.5086 26.8505 77.6003 26.4556 77.5821C26.0606 77.5638 25.6747 77.4361 25.3375 77.2085C25 76.9807 24.7224 76.6603 24.5365 76.277C24.3535 75.8993 24.2672 75.476 24.288 75.0498L24.3227 74.7431L27.6105 54.6809L27.672 54.3056L27.4056 54.0342L13.4513 39.8182L13.4506 39.8175C13.1602 39.5224 12.9468 39.1487 12.8359 38.7329C12.7249 38.3171 12.7214 37.8772 12.8257 37.4593C12.93 37.0415 13.1375 36.6639 13.4234 36.3635C13.7039 36.0688 14.0497 35.859 14.4248 35.7508L14.7201 35.6879L33.96 32.7684Z" stroke="url(#paint1_linear_1206_6083)" stroke-width="1.5"/>
</g>
<path d="M33.96 32.7684L34.3553 32.7084L34.5258 32.3468L43.1393 14.083L43.1395 14.0826C43.3308 13.6762 43.6247 13.339 43.9836 13.1053C44.3422 12.8718 44.7528 12.75 45.1691 12.75C45.5854 12.75 45.996 12.8718 46.3546 13.1053C46.7135 13.339 47.0074 13.6762 47.1987 14.0826L47.1988 14.0829L55.8093 32.3467L55.9798 32.7083L56.3751 32.7684L75.6369 35.6944L75.6372 35.6944C76.0279 35.7536 76.4 35.9206 76.7148 36.1822C77.0299 36.4441 77.2767 36.7918 77.4263 37.1924C77.5759 37.5931 77.6217 38.0296 77.5581 38.4565C77.4955 38.8762 77.3299 39.2685 77.0808 39.5955L76.8752 39.83L62.9297 54.0342L62.6632 54.3056L62.7247 54.681L66.0186 74.7617L66.0186 74.7619C66.0889 75.1892 66.0491 75.6281 65.9042 76.0325C65.7594 76.4367 65.5159 76.7893 65.2025 77.0561C64.8893 77.3228 64.5175 77.4947 64.1259 77.5583C63.741 77.6208 63.3467 77.577 62.9813 77.4303L62.719 77.304L45.5494 67.8345L45.1876 67.635L44.8256 67.8342L27.5987 77.3136L27.5984 77.3138C27.2447 77.5086 26.8505 77.6003 26.4556 77.5821C26.0606 77.5638 25.6747 77.4361 25.3375 77.2085C25 76.9807 24.7224 76.6603 24.5365 76.277C24.3535 75.8993 24.2672 75.476 24.288 75.0498L24.3227 74.7431L27.6105 54.6809L27.672 54.3056L27.4056 54.0342L13.4513 39.8182L13.4506 39.8175C13.1602 39.5224 12.9468 39.1487 12.8359 38.7329C12.7249 38.3171 12.7214 37.8772 12.8257 37.4593C12.93 37.0415 13.1375 36.6639 13.4234 36.3635C13.7039 36.0688 14.0497 35.859 14.4248 35.7508L14.7201 35.6879L33.96 32.7684Z" stroke="url(#paint2_linear_1206_6083)" stroke-width="1.5"/>
<defs>
<filter id="filter0_f_1206_6083" x="0.2" y="0.2" width="89.9359" height="89.9359" filterUnits="userSpaceOnUse" color-interpolation-filters="sRGB">
<feFlood flood-opacity="0" result="BackgroundImageFix"/>
<feBlend mode="normal" in="SourceGraphic" in2="BackgroundImageFix" result="shape"/>
<feGaussianBlur stdDeviation="5.9" result="effect1_foregroundBlur_1206_6083"/>
</filter>
<linearGradient id="paint0_linear_1206_6083" x1="85.1203" y1="12" x2="42.9065" y2="54.9676" gradientUnits="userSpaceOnUse">
<stop offset="0.341644" stop-color="#32B5FF"/>
<stop offset="0.659594" stop-color="#58FF29"/>
<stop offset="1" stop-color="#58FF29" stop-opacity="0"/>
</linearGradient>
<linearGradient id="paint1_linear_1206_6083" x1="85.1203" y1="12" x2="42.9065" y2="54.9676" gradientUnits="userSpaceOnUse">
<stop offset="0.341644" stop-color="#32B5FF"/>
<stop offset="0.659594" stop-color="#58FF29"/>
<stop offset="1" stop-color="#58FF29" stop-opacity="0"/>
</linearGradient>
<linearGradient id="paint2_linear_1206_6083" x1="110.675" y1="-6.24238" x2="27.8255" y2="56.0635" gradientUnits="userSpaceOnUse">
<stop offset="0.426923" stop-color="#32B5FF"/>
<stop offset="0.651925" stop-color="#40D1B0"/>
<stop offset="0.756607" stop-color="#58FF29"/>
<stop offset="1" stop-color="#58FF29" stop-opacity="0"/>
</linearGradient>
</defs>
</svg>
