<svg width="125" height="126" viewBox="0 0 125 126" fill="none" xmlns="http://www.w3.org/2000/svg">
<g filter="url(#filter0_f_1646_365)">
<circle cx="62.6493" cy="62.846" r="25.3322" transform="rotate(8.67872 62.6493 62.846)" fill="url(#paint0_linear_1646_365)" fill-opacity="0.8"/>
</g>
<path d="M66.3436 71.5237C66.1914 71.5007 66.0453 71.4478 65.9136 71.3681C65.7819 71.2884 65.6672 71.1834 65.5762 71.0592L61.649 65.7171C61.5578 65.5931 61.4919 65.4524 61.4551 65.3029C61.4183 65.1535 61.4113 64.9982 61.4346 64.8461L62.3778 58.6665C62.4247 58.3592 62.5918 58.0831 62.8423 57.899C63.0927 57.7149 63.4061 57.6378 63.7134 57.6847C64.0207 57.7316 64.2967 57.8986 64.4809 58.1491C64.665 58.3996 64.7421 58.7129 64.6952 59.0202L63.8251 64.72L67.4647 69.6709C67.602 69.8577 67.6808 70.081 67.6912 70.3125C67.7016 70.5441 67.6431 70.7735 67.5231 70.9718C67.4031 71.1701 67.227 71.3284 67.0171 71.4267C66.8071 71.5249 66.5728 71.5587 66.3436 71.5237Z" fill="white"/>
<path d="M60.4121 79.3141C57.0666 78.8029 54.0064 77.1343 51.7647 74.5989C49.5229 72.0635 48.2416 68.822 48.1439 65.4391C48.0463 62.0561 49.1385 58.7461 51.2303 56.0856C53.3221 53.4252 56.2809 51.5828 59.5914 50.8795C59.8954 50.8154 60.2125 50.8746 60.473 51.0441C60.7334 51.2137 60.9159 51.4796 60.9804 51.7836C61.0448 52.0876 60.986 52.4048 60.8168 52.6654C60.6476 52.9261 60.3818 53.1089 60.0779 53.1738C57.1185 53.8 54.5003 55.5105 52.7379 57.9691C50.9756 60.4277 50.1965 63.4565 50.5539 66.4603C50.9113 69.4641 52.3792 72.2257 54.6692 74.2021C56.9592 76.1786 59.9056 77.2271 62.9294 77.1416C65.9531 77.056 68.8355 75.8426 71.0101 73.7398C73.1847 71.637 74.4941 68.7969 74.681 65.7777C74.868 62.7585 73.9189 59.7785 72.0204 57.4235C70.1218 55.0685 67.4111 53.5088 64.421 53.0509C64.1137 53.004 63.8376 52.8369 63.6535 52.5865C63.4694 52.336 63.3923 52.0227 63.4392 51.7154C63.4861 51.4081 63.6531 51.132 63.9036 50.9478C64.1541 50.7637 64.4674 50.6866 64.7747 50.7335C68.5647 51.3121 71.9697 53.3725 74.2406 56.4615C76.5115 59.5505 77.4622 63.4151 76.8837 67.2051C76.3052 70.9951 74.2448 74.4001 71.1558 76.671C68.0667 78.9419 64.2021 79.8926 60.4121 79.3141Z" fill="white"/>
<path d="M68.9904 49.0053L61.2659 47.8262C60.9586 47.7793 60.6825 47.6123 60.4984 47.3618C60.3143 47.1113 60.2372 46.798 60.2841 46.4907C60.331 46.1834 60.498 45.9073 60.7485 45.7232C60.999 45.5391 61.3123 45.462 61.6196 45.5089L69.3441 46.688C69.6514 46.7349 69.9275 46.9019 70.1116 47.1524C70.2957 47.4029 70.3728 47.7162 70.3259 48.0235C70.279 48.3308 70.1119 48.6069 69.8615 48.791C69.611 48.9751 69.2977 49.0522 68.9904 49.0053Z" fill="white"/>
<path d="M64.4217 53.0503C64.1145 53.0033 63.8384 52.8362 63.6543 52.5858C63.4702 52.3353 63.3931 52.022 63.4399 51.7147L64.1474 47.0801C64.1943 46.7728 64.3613 46.4967 64.6118 46.3126C64.8622 46.1284 65.1756 46.0513 65.4829 46.0982C65.7902 46.1452 66.0663 46.3122 66.2504 46.5627C66.4345 46.8131 66.5116 47.1265 66.4647 47.4338L65.7573 52.0685C65.7103 52.3757 65.5432 52.6518 65.2928 52.8359C65.0423 53.02 64.729 53.0971 64.4217 53.0503Z" fill="white"/>
<defs>
<filter id="filter0_f_1646_365" x="0.440121" y="0.637875" width="124.417" height="124.416" filterUnits="userSpaceOnUse" color-interpolation-filters="sRGB">
<feFlood flood-opacity="0" result="BackgroundImageFix"/>
<feBlend mode="normal" in="SourceGraphic" in2="BackgroundImageFix" result="shape"/>
<feGaussianBlur stdDeviation="18.4362" result="effect1_foregroundBlur_1646_365"/>
</filter>
<linearGradient id="paint0_linear_1646_365" x1="91.148" y1="34.3473" x2="30.9841" y2="91.3447" gradientUnits="userSpaceOnUse">
<stop stop-color="#FF0000"/>
<stop offset="0.70727" stop-color="#FFC368"/>
</linearGradient>
</defs>
</svg>
