<svg width="125" height="124" viewBox="0 0 125 124" fill="none" xmlns="http://www.w3.org/2000/svg">
<g filter="url(#filter0_f_1646_376)">
<circle cx="62.2012" cy="62.069" r="25.2" transform="rotate(14.4779 62.2012 62.069)" fill="url(#paint0_linear_1646_376)" fill-opacity="0.8"/>
</g>
<path fill-rule="evenodd" clip-rule="evenodd" d="M65.0278 77.2572L65.7278 74.5462L73.861 76.6462C74.9401 76.9248 76.0849 76.7635 77.0438 76.197C78.0037 75.6323 78.6991 74.7086 78.9777 73.6296L83.8778 54.652C84.1564 53.573 83.9951 52.4281 83.4287 51.4693C82.8639 50.5094 81.9402 49.814 80.8612 49.5354L51.0393 41.8352C49.9603 41.5566 48.8154 41.7179 47.8565 42.2843C46.8966 42.8491 46.2012 43.7728 45.9226 44.8518L41.0225 63.8294C40.7439 64.9084 40.9052 66.0533 41.4717 67.0121C42.0364 67.972 42.9601 68.6674 44.0391 68.946L52.1724 71.0461L51.4724 73.7572L50.1168 73.4071C49.3686 73.2139 48.6045 73.6644 48.4113 74.4127C48.2181 75.1609 48.6685 75.925 49.4168 76.1182L65.6833 80.3183C66.4316 80.5115 67.1956 80.0611 67.3888 79.3128C67.5821 78.5645 67.1316 77.8004 66.3833 77.6072L65.0278 77.2572ZM63.0167 73.8461L54.8835 71.7461L54.1834 74.4572L62.3167 76.5572L63.0167 73.8461ZM81.1667 53.952L76.2666 72.9296C76.1739 73.2888 75.9423 73.5977 75.622 73.7854C75.3027 73.9748 74.9203 74.0279 74.5611 73.9351L44.7391 66.2349C44.3799 66.1422 44.071 65.9106 43.8833 65.5903C43.6939 65.271 43.6408 64.8886 43.7336 64.5294L48.6337 45.5518C48.7265 45.1926 48.9581 44.8837 49.2783 44.696C49.5976 44.5066 49.98 44.4535 50.3393 44.5463L80.1612 52.2464C80.5204 52.3392 80.8293 52.5708 81.017 52.8911C81.2064 53.2104 81.2595 53.5928 81.1667 53.952ZM74.2555 69.5185C75.0038 69.7117 75.4543 70.4758 75.2611 71.224C75.0679 71.9723 74.3038 72.4228 73.5555 72.2296C72.8073 72.0364 72.3568 71.2723 72.55 70.524C72.7432 69.7758 73.5073 69.3253 74.2555 69.5185Z" fill="white"/>
<defs>
<filter id="filter0_f_1646_376" x="0.316097" y="0.182796" width="123.77" height="123.772" filterUnits="userSpaceOnUse" color-interpolation-filters="sRGB">
<feFlood flood-opacity="0" result="BackgroundImageFix"/>
<feBlend mode="normal" in="SourceGraphic" in2="BackgroundImageFix" result="shape"/>
<feGaussianBlur stdDeviation="18.34" result="effect1_foregroundBlur_1646_376"/>
</filter>
<linearGradient id="paint0_linear_1646_376" x1="90.5512" y1="33.719" x2="30.7012" y2="90.419" gradientUnits="userSpaceOnUse">
<stop stop-color="#00FFC2"/>
<stop offset="1" stop-color="#FFA800"/>
</linearGradient>
</defs>
</svg>
