<svg width="55" height="56" viewBox="0 0 55 56" fill="none" xmlns="http://www.w3.org/2000/svg">
<g clip-path="url(#clip0_1743_3276)">
<path d="M53.6151 30.1861C54.4924 29.1829 54.4924 27.6853 53.6151 26.6821L49.766 22.2809C49.2861 21.7322 49.0523 21.0107 49.1192 20.2848L49.655 14.4697C49.7775 13.1404 48.8962 11.926 47.5944 11.6303L41.9141 10.3401C41.2001 10.1779 40.5845 9.72871 40.2122 9.09828L37.2356 4.05862C36.5549 2.90607 35.124 2.43849 33.8941 2.96665L28.5495 5.26168C27.879 5.54958 27.1198 5.54958 26.4493 5.26168L21.1018 2.96537C19.8731 2.43776 18.4437 2.90379 17.7621 4.0542L14.789 9.07223C14.4152 9.70316 13.7976 10.1519 13.0821 10.3124L7.41122 11.5848C6.10631 11.8776 5.22137 13.0933 5.34375 14.4251L5.88018 20.2628C5.94672 20.9868 5.71411 21.7066 5.23643 22.2547L1.3779 26.6826C0.503501 27.686 0.504828 29.1811 1.38101 30.1829L5.23307 34.5875C5.71281 35.1361 5.94661 35.8574 5.87993 36.583L5.34318 42.4242C5.22104 43.7532 6.10228 44.9672 7.40382 45.2629L13.0868 46.5537C13.7996 46.7156 14.4144 47.1636 14.7869 47.7924L17.7591 52.809C18.442 53.9615 19.8752 54.4268 21.1049 53.8952L26.4469 51.5855C27.1187 51.2951 27.8805 51.2941 28.5531 51.5829L33.897 53.8777C35.1257 54.4053 36.5551 53.9393 37.2367 52.7889L40.2119 47.7673C40.5845 47.1384 41.1993 46.6905 41.912 46.5286L47.5944 45.2379C48.8962 44.9422 49.7775 43.7278 49.655 42.3985L49.1192 36.5834C49.0523 35.8575 49.2861 35.136 49.766 34.5873L53.6151 30.1861Z" fill="url(#paint0_linear_1743_3276)"/>
<circle cx="27.5001" cy="28.4357" r="18.4073" stroke="black" stroke-width="0.443548"/>
<circle cx="27.5003" cy="28.4338" r="9.53629" stroke="black" stroke-width="0.443548"/>
<g clip-path="url(#clip1_1743_3276)">
<path fill-rule="evenodd" clip-rule="evenodd" d="M29.2821 32.4624H28.5072V30.9492H29.2605C29.4704 30.9492 29.6618 31.0462 29.7698 31.1594C29.8346 31.2273 29.8779 31.2855 29.918 31.376C30.0785 31.7543 29.918 32.194 29.5692 32.3783C29.5012 32.4139 29.3747 32.4624 29.2821 32.4624ZM29.1648 29.9437H28.5072V28.7118H29.1215C29.2913 28.7118 29.4858 28.7894 29.5908 28.8637C29.9797 29.1418 29.8593 29.6818 29.4117 29.8725C29.3531 29.8984 29.2419 29.9404 29.1648 29.9404V29.9437ZM22.6326 27.7547C22.6326 28.3982 23.0154 28.5792 23.5371 28.5792H24.5281V30.6679C24.88 30.6679 26.3895 30.6906 26.6365 30.6421C26.7167 30.6259 26.8186 30.5774 26.8649 30.5321C26.9853 30.4125 27.0409 30.2573 27.0409 30.0148V29.2679H26.1024V29.685H25.5838V28.7376H27.5688V32.4527H23.8921C23.8582 32.4527 23.6112 32.1746 23.5711 32.1326C23.4569 32.013 23.3025 31.8384 23.179 31.7317C23.1482 31.7058 23.1265 31.6799 23.0957 31.6476C23.0432 31.5926 22.6666 31.1788 22.6172 31.1658C22.6172 31.224 22.6295 31.2273 22.6295 31.2887V33.3095H29.4426C29.7544 33.3095 30.0631 33.2158 30.2977 33.0541C30.3409 33.025 30.3656 33.0056 30.4057 32.9733C30.6033 32.8051 30.6928 32.6984 30.8317 32.4462C31.0108 32.1164 31.017 31.9742 31.017 31.6153C31.017 31.3243 30.8873 30.9913 30.7206 30.7649C30.6002 30.6033 30.4273 30.4772 30.2514 30.3866C30.2174 30.3705 30.1896 30.3575 30.1557 30.3414C30.1094 30.322 30.0847 30.3317 30.0816 30.2735C30.1526 30.2573 30.2792 30.1571 30.3347 30.1118C30.5663 29.9243 30.7175 29.5557 30.7175 29.2129C30.7175 28.8702 30.7021 28.7279 30.5447 28.4434C30.3594 28.1072 30.0692 27.8647 29.7142 27.7321C29.5537 27.6707 29.3037 27.5963 29.0876 27.5963H25.5838V26.7621H26.1024V27.1695H27.0409V26.3676C27.0409 26.1704 26.8865 26.0088 26.7692 25.9279C26.6334 25.8374 26.4297 25.7792 26.2105 25.7792H24.4972V27.5866H23.7223V25.3847C23.7223 25.3395 24.2348 24.8448 24.3336 24.7381C24.3644 24.7057 24.5219 24.5279 24.5527 24.5279H30.6002C30.6342 24.5279 30.9923 24.9224 31.0231 24.9547C31.054 24.987 31.4306 25.3621 31.4306 25.3977V26.6392C31.4306 26.6845 31.2948 26.788 31.267 26.8171L30.5138 27.6092H31.9153C32.0974 27.6092 32.048 27.5769 32.2456 27.37C32.2734 27.3409 32.3783 27.2503 32.3783 27.2148V23.587C32.3783 23.5612 32.3722 23.5547 32.3475 23.5547H22.6326V27.7547Z" fill="black"/>
<path fill-rule="evenodd" clip-rule="evenodd" d="M31.4276 32.5212C31.4276 32.5762 31.2115 32.7573 31.1497 32.8187C31.0571 32.9157 30.7145 33.2617 30.6836 33.3102H32.2919C32.3321 33.3102 32.366 33.3199 32.366 33.2778V29.123H31.4276V32.5212Z" fill="black"/>
<path fill-rule="evenodd" clip-rule="evenodd" d="M31.8864 27.957C32.1457 27.957 32.3587 28.1769 32.3587 28.4517C32.3587 28.7266 32.1488 28.9464 31.8864 28.9464C31.624 28.9464 31.4141 28.7266 31.4141 28.4517C31.4141 28.1769 31.624 27.957 31.8864 27.957Z" fill="black"/>
</g>
<path d="M36.8368 15.0859L33.6844 19.1727L32.944 18.6016L36.0964 14.5149L36.8368 15.0859Z" fill="black"/>
<path d="M28.4744 16.8996L29.8657 11.9294L31.7684 12.4619C32.1275 12.5625 32.4102 12.7027 32.6163 12.8825C32.8245 13.0612 32.9605 13.2641 33.0243 13.4913C33.0896 13.719 33.0879 13.9558 33.0191 14.2017C32.9625 14.4039 32.8752 14.5662 32.7572 14.6884C32.6397 14.8091 32.503 14.8955 32.347 14.9478C32.191 15.0001 32.0267 15.0231 31.8541 15.0166L31.8405 15.0651C32.0141 15.1242 32.168 15.2257 32.3022 15.3697C32.4384 15.5125 32.5334 15.6874 32.5871 15.8944C32.6409 16.1013 32.6324 16.331 32.5618 16.5834C32.4897 16.8407 32.3627 17.0546 32.1806 17.2252C31.999 17.3942 31.7662 17.5026 31.4824 17.5505C31.1985 17.5984 30.8665 17.5692 30.4863 17.4628L28.4744 16.8996ZM29.5854 16.3993L30.5537 16.6703C30.8805 16.7618 31.1334 16.7654 31.3122 16.6812C31.4932 16.5957 31.6113 16.4543 31.6665 16.2569C31.7077 16.1097 31.7085 15.9668 31.6687 15.8284C31.6294 15.6882 31.5522 15.5654 31.4369 15.4599C31.3221 15.3527 31.1716 15.2731 30.9856 15.221L29.993 14.9432L29.5854 16.3993ZM30.1744 14.2952L31.065 14.5445C31.2203 14.588 31.3682 14.5988 31.5087 14.5771C31.6495 14.5537 31.7703 14.4994 31.8709 14.4142C31.9736 14.3278 32.0453 14.2118 32.0861 14.0662C32.14 13.8736 32.1164 13.696 32.0154 13.5334C31.916 13.3713 31.7336 13.253 31.4683 13.1788L30.5582 12.924L30.1744 14.2952Z" fill="black"/>
<path d="M24.0634 17.6366L22.943 12.5984L26.2198 11.8697L26.3899 12.6348L24.0258 13.1605L24.33 14.5283L26.5244 14.0403L26.6945 14.8054L24.5001 15.2934L24.806 16.6686L27.1898 16.1384L27.3599 16.9035L24.0634 17.6366Z" fill="black"/>
<path d="M20.6425 15.3014C20.4878 15.1431 20.3039 15.0698 20.0908 15.0816C19.8789 15.0923 19.6641 15.1834 19.4464 15.355C19.2933 15.4756 19.1801 15.6021 19.107 15.7346C19.0338 15.8671 18.9994 15.9958 19.0037 16.1207C19.008 16.2456 19.0495 16.3594 19.1282 16.4621C19.1948 16.5466 19.2716 16.6047 19.3587 16.6366C19.4472 16.6675 19.5422 16.6782 19.6438 16.6687C19.7444 16.6579 19.8471 16.6348 19.9518 16.5994C20.0565 16.564 20.1582 16.5234 20.2569 16.4777L20.7119 16.2734C20.8931 16.1884 21.0782 16.1207 21.2672 16.0701C21.4576 16.0186 21.6453 15.9948 21.8302 15.9988C22.0165 16.0018 22.1941 16.0426 22.363 16.1213C22.5319 16.2 22.6855 16.3271 22.8238 16.5027C23.0109 16.7402 23.115 16.9973 23.136 17.2737C23.1559 17.5489 23.0911 17.8277 22.9415 18.1102C22.7922 18.3904 22.5552 18.6583 22.2305 18.9141C21.915 19.1625 21.6027 19.3294 21.2935 19.4147C20.9856 19.499 20.6925 19.4988 20.4142 19.4143C20.1372 19.3288 19.8874 19.1556 19.6648 18.8946L20.3874 18.3255C20.5092 18.4584 20.6453 18.5415 20.7956 18.5749C20.946 18.6084 21.1007 18.5998 21.2599 18.5493C21.4203 18.4978 21.5771 18.4117 21.7302 18.2911C21.8899 18.1654 22.0111 18.0314 22.0938 17.8893C22.1767 17.7448 22.2188 17.6026 22.2198 17.4628C22.2198 17.3216 22.1748 17.1924 22.0846 17.0753C22.0001 16.9707 21.9005 16.908 21.7857 16.8872C21.6699 16.8651 21.539 16.8741 21.3931 16.9142C21.2474 16.9519 21.0875 17.0095 20.9132 17.0869L20.3583 17.3314C19.9568 17.5086 19.5905 17.5865 19.2592 17.5651C18.9282 17.5414 18.6484 17.3843 18.4197 17.094C18.2315 16.8551 18.1314 16.5949 18.1194 16.3135C18.1087 16.0311 18.1765 15.7521 18.3229 15.4763C18.4683 15.1993 18.6828 14.949 18.9666 14.7255C19.2543 14.4989 19.5459 14.3505 19.8414 14.2803C20.1372 14.2077 20.4167 14.211 20.6801 14.2902C20.9424 14.368 21.1655 14.5195 21.3493 14.7447L20.6425 15.3014Z" fill="black"/>
<path d="M41.1874 35.8478C41.0596 36.0367 40.8967 36.173 40.6987 36.2566C40.5007 36.3402 40.28 36.3628 40.0366 36.3244C39.7933 36.2861 39.5396 36.1776 39.2756 35.999C39.0084 35.8182 38.8126 35.6219 38.6882 35.4099C38.5635 35.1963 38.505 34.9825 38.5127 34.7687C38.5194 34.5541 38.5853 34.3545 38.7102 34.1698C38.8056 34.0289 38.9079 33.9292 39.0174 33.8709C39.1258 33.8119 39.2314 33.7784 39.3342 33.7703C39.4359 33.7616 39.5259 33.7624 39.6041 33.7727L39.62 33.7492L38.4208 32.9379L38.8053 32.3696L42.0115 34.5386L41.6345 35.096L41.2556 34.8397L41.2323 34.8741C41.271 34.9429 41.3045 35.0272 41.3328 35.127C41.3601 35.226 41.366 35.3365 41.3505 35.4584C41.335 35.5803 41.2806 35.7101 41.1874 35.8478ZM40.8294 35.3752C40.9106 35.2552 40.9475 35.131 40.9399 35.0027C40.9314 34.8736 40.8835 34.7477 40.7962 34.6248C40.709 34.5019 40.5876 34.3878 40.4321 34.2826C40.2766 34.1774 40.1266 34.1079 39.9822 34.074C39.8384 34.0392 39.7061 34.0425 39.5852 34.0839C39.4651 34.1244 39.3637 34.2056 39.2811 34.3277C39.1957 34.454 39.1572 34.5817 39.1658 34.7107C39.1744 34.8397 39.2221 34.9648 39.309 35.086C39.3959 35.2071 39.514 35.3182 39.6632 35.4192C39.8135 35.5208 39.9621 35.5902 40.109 35.6272C40.2555 35.6624 40.3913 35.6607 40.5164 35.6221C40.6411 35.5817 40.7454 35.4994 40.8294 35.3752Z" fill="black"/>
<path d="M39.0911 38.3994C38.878 38.5976 38.6527 38.7244 38.4153 38.78C38.1779 38.8338 37.9418 38.8176 37.7069 38.7315C37.4711 38.6444 37.2498 38.4897 37.043 38.2673C36.8397 38.0486 36.7028 37.818 36.6322 37.5756C36.5618 37.3314 36.5589 37.0933 36.6235 36.8611C36.6872 36.6281 36.8206 36.4171 37.0237 36.2284C37.1547 36.1065 37.2981 36.0128 37.4538 35.9471C37.6097 35.8797 37.7731 35.8482 37.9441 35.8526C38.1161 35.8562 38.2909 35.9018 38.4687 35.9894C38.6457 36.0761 38.8208 36.2127 38.9941 36.3991L39.137 36.5527L37.3942 38.1731L37.0802 37.8353L38.3426 36.6616C38.2525 36.5665 38.1523 36.5004 38.0422 36.4634C37.9313 36.4255 37.8192 36.4187 37.7059 36.4431C37.5936 36.4667 37.4895 36.5231 37.3935 36.6123C37.2911 36.7075 37.2243 36.8161 37.1931 36.938C37.161 37.059 37.1607 37.1798 37.1919 37.3004C37.2233 37.4193 37.2827 37.5266 37.3701 37.6225L37.6442 37.9174C37.7592 38.041 37.8805 38.1261 38.0081 38.1727C38.1348 38.2183 38.2607 38.2269 38.3856 38.1985C38.5097 38.1691 38.6262 38.1038 38.7351 38.0026C38.808 37.9348 38.8646 37.8633 38.9048 37.7881C38.9441 37.7119 38.9666 37.6334 38.9722 37.5525C38.9778 37.4715 38.9638 37.3908 38.9302 37.3102L39.447 36.9278C39.5324 37.0789 39.5765 37.2392 39.5793 37.4087C39.5821 37.5765 39.5429 37.7453 39.4618 37.9154C39.3799 38.0845 39.2563 38.2458 39.0911 38.3994Z" fill="black"/>
<path d="M35.8888 40.7811L34.341 38.3248L34.9023 37.9711L35.1603 38.3805L35.1859 38.3644C35.1413 38.1944 35.1492 38.0368 35.2096 37.8915C35.2703 37.7445 35.3711 37.6266 35.5118 37.5379C35.5438 37.5178 35.5805 37.4969 35.622 37.4752C35.6638 37.4518 35.6998 37.4344 35.7298 37.4229L36.0653 37.9555C36.0354 37.9624 35.9918 37.9794 35.9345 38.0066C35.8775 38.0321 35.8245 38.0603 35.7755 38.0912C35.67 38.1577 35.5895 38.2404 35.5342 38.3393C35.4792 38.4365 35.453 38.5401 35.4554 38.6503C35.4578 38.7605 35.4919 38.8678 35.5577 38.9723L36.4676 40.4163L35.8888 40.7811Z" fill="black"/>
<path d="M33.6665 42.1801C33.3957 42.2869 33.1397 42.3228 32.8983 42.2879C32.6577 42.2514 32.4438 42.1502 32.2565 41.9843C32.0687 41.8172 31.9191 41.5924 31.8078 41.3099C31.6982 41.0321 31.6548 40.7675 31.6776 40.516C31.7011 40.263 31.7853 40.0401 31.9302 39.8476C32.0746 39.6539 32.2757 39.5062 32.5336 39.4045C32.7001 39.3389 32.8678 39.3039 33.0367 39.2996C33.2064 39.2936 33.3701 39.3239 33.5277 39.3905C33.6865 39.4565 33.8327 39.5628 33.9662 39.7092C34.0994 39.8545 34.2126 40.0455 34.306 40.2823L34.3829 40.4775L32.1691 41.3503L31.9999 40.9213L33.6036 40.289C33.5544 40.1676 33.4852 40.0695 33.3962 39.9949C33.3067 39.9191 33.2048 39.8719 33.0905 39.8534C32.9773 39.8343 32.8598 39.8488 32.7379 39.8969C32.6078 39.9482 32.5059 40.0249 32.4324 40.127C32.3585 40.228 32.314 40.3403 32.2991 40.464C32.285 40.5861 32.3011 40.7077 32.3475 40.8289L32.4952 41.2035C32.5571 41.3606 32.639 41.484 32.7408 41.5739C32.8421 41.6626 32.9562 41.7166 33.0829 41.7357C33.2092 41.7536 33.3415 41.7353 33.4798 41.6808C33.5724 41.6443 33.6511 41.5983 33.716 41.543C33.7804 41.4864 33.83 41.4215 33.8647 41.3482C33.8995 41.2749 33.9159 41.1946 33.914 41.1073L34.5347 40.9398C34.5591 41.1117 34.5417 41.277 34.4824 41.4359C34.4238 41.5931 34.3258 41.736 34.1882 41.8647C34.0502 41.9923 33.8763 42.0974 33.6665 42.1801Z" fill="black"/>
<path d="M30.5644 40.0324L30.6706 40.5509L29.0356 40.8859L28.9294 40.3674L30.5644 40.0324ZM29.1934 39.6033L29.8637 39.466L30.4108 42.136C30.4292 42.2262 30.457 42.2925 30.494 42.3351C30.532 42.3762 30.5756 42.4007 30.6248 42.4086C30.674 42.4165 30.7264 42.4148 30.782 42.4034C30.8239 42.3948 30.8616 42.3839 30.8949 42.3706C30.9294 42.3571 30.9554 42.346 30.9729 42.3373L31.1932 42.8382C31.16 42.8578 31.1115 42.8819 31.0479 42.9104C30.9855 42.9386 30.907 42.9637 30.8125 42.9856C30.6456 43.025 30.4892 43.0306 30.3433 43.0027C30.1971 42.9734 30.0724 42.9077 29.9691 42.8054C29.867 42.7028 29.7984 42.5625 29.7632 42.3845L29.1934 39.6033Z" fill="black"/>
<path d="M28.623 41.6456L28.0026 41.7396C27.9824 41.6774 27.949 41.6195 27.9027 41.566C27.8575 41.5124 27.7978 41.4701 27.7233 41.4392C27.6489 41.4082 27.5588 41.395 27.453 41.3994C27.3107 41.4054 27.1924 41.4412 27.0981 41.507C27.005 41.5726 26.9611 41.6546 26.9665 41.7527C26.9687 41.8371 27.0025 41.9044 27.0676 41.9547C27.134 42.0049 27.2416 42.0439 27.3903 42.0717L27.8895 42.1568C28.1665 42.2045 28.3744 42.2897 28.5132 42.4125C28.6533 42.5353 28.7283 42.7006 28.7382 42.9082C28.7446 43.0908 28.6978 43.2542 28.5979 43.3984C28.4992 43.5413 28.3584 43.6556 28.1753 43.7415C27.9922 43.8273 27.7798 43.8753 27.5381 43.8854C27.1831 43.9003 26.8942 43.838 26.6714 43.6985C26.4486 43.5577 26.3108 43.3547 26.2581 43.0896L26.9221 42.9975C26.9578 43.1271 27.0261 43.2233 27.1271 43.2859C27.2281 43.3485 27.3573 43.3765 27.5147 43.3699C27.6771 43.3631 27.806 43.3243 27.9014 43.2535C27.998 43.1826 28.0443 43.0981 28.0402 42.9999C28.0367 42.9168 28.0018 42.8495 27.9353 42.7981C27.8701 42.7466 27.7701 42.7091 27.6355 42.6857L27.1364 42.6026C26.8557 42.5563 26.6458 42.4673 26.5066 42.3357C26.3673 42.2028 26.2939 42.0306 26.2863 41.819C26.2776 41.6403 26.3196 41.4834 26.4123 41.3484C26.5062 41.212 26.6398 41.1043 26.8131 41.0251C26.9875 40.9447 27.1906 40.8996 27.4222 40.8899C27.7622 40.8757 28.0327 40.9369 28.2339 41.0735C28.4364 41.2101 28.5661 41.4008 28.623 41.6456Z" fill="black"/>
<path d="M24.145 43.7018L24.488 40.8189L25.1675 40.8998L24.8244 43.7827L24.145 43.7018ZM24.8783 40.4504C24.7707 40.4376 24.6824 40.3909 24.6133 40.3104C24.5443 40.2286 24.5159 40.137 24.528 40.0357C24.5402 39.9331 24.5893 39.8507 24.6754 39.7886C24.7616 39.7253 24.8585 39.7 24.9661 39.7128C25.075 39.7258 25.1632 39.7731 25.2309 39.8547C25.3 39.9353 25.3285 40.0269 25.3162 40.1295C25.3042 40.2308 25.2551 40.3132 25.1688 40.3765C25.084 40.4387 24.9872 40.4634 24.8783 40.4504Z" fill="black"/>
<path d="M21.0769 43.8539C20.8425 43.78 20.6513 43.6847 20.5031 43.5679C20.3546 43.4524 20.2459 43.3256 20.1771 43.1876C20.1083 43.0497 20.0744 42.9102 20.0752 42.7691L20.7078 42.812C20.7172 42.8744 20.7388 42.94 20.7726 43.0088C20.806 43.0788 20.8599 43.1446 20.9342 43.2064C21.0094 43.2697 21.1124 43.3221 21.2434 43.3634C21.4285 43.4217 21.5959 43.425 21.7457 43.3731C21.8952 43.3225 22.0021 43.195 22.0665 42.9907L22.2319 42.4661L22.1995 42.4559C22.1446 42.5126 22.0735 42.5661 21.9863 42.6166C21.9002 42.6674 21.7967 42.7002 21.6758 42.7149C21.5561 42.73 21.417 42.7125 21.2583 42.6625C21.0456 42.5954 20.8685 42.4847 20.7269 42.3304C20.5868 42.1753 20.4972 41.9819 20.458 41.7502C20.4203 41.5177 20.449 41.2506 20.5442 40.9489C20.64 40.6449 20.7714 40.4042 20.9383 40.227C21.1068 40.0489 21.2946 39.933 21.5017 39.8794C21.7093 39.8246 21.9194 39.8308 22.1321 39.8979C22.2943 39.949 22.419 40.0187 22.5061 40.107C22.5948 40.1944 22.6583 40.2864 22.6965 40.383C22.7352 40.4785 22.7601 40.5649 22.7713 40.6425L22.8074 40.6538L22.9517 40.196L23.5953 40.3989L22.708 43.2128C22.6333 43.4495 22.515 43.6276 22.3532 43.747C22.1914 43.8664 22.0004 43.9337 21.7802 43.9488C21.5601 43.964 21.3256 43.9323 21.0769 43.8539ZM21.6018 42.208C21.74 42.2516 21.8684 42.2551 21.987 42.2184C22.1055 42.1818 22.2099 42.1084 22.3002 41.9981C22.3905 41.8879 22.4635 41.7444 22.5192 41.5678C22.5741 41.3935 22.597 41.2329 22.5878 41.086C22.5799 40.9395 22.5386 40.8148 22.464 40.712C22.391 40.6084 22.2841 40.5344 22.1435 40.4901C21.9981 40.4442 21.8648 40.4438 21.7436 40.4888C21.6224 40.5338 21.5163 40.6147 21.4253 40.7313C21.3348 40.8468 21.2631 40.988 21.2105 41.1551C21.157 41.3245 21.1349 41.4807 21.144 41.6236C21.1546 41.7657 21.1975 41.8876 21.2725 41.9892C21.349 42.09 21.4588 42.1629 21.6018 42.208Z" fill="black"/>
<path d="M17.7415 41.0255C17.4907 40.8777 17.3049 40.698 17.1839 40.4863C17.0646 40.2741 17.0128 40.0432 17.0283 39.7935C17.0445 39.5427 17.1296 39.2864 17.2838 39.0248C17.4354 38.7675 17.6173 38.5705 17.8295 38.4337C18.0435 38.2965 18.2709 38.2258 18.5118 38.2215C18.7534 38.2161 18.9936 38.2838 19.2324 38.4245C19.3866 38.5154 19.5174 38.6261 19.6247 38.7566C19.7338 38.8867 19.8106 39.0344 19.8552 39.1995C19.9008 39.3654 19.907 39.546 19.8737 39.7414C19.8411 39.9357 19.7602 40.1425 19.631 40.3618L19.5245 40.5426L17.4743 39.3345L17.7084 38.9372L19.1935 39.8123C19.259 39.6987 19.2937 39.5839 19.2978 39.4678C19.3025 39.3507 19.277 39.2413 19.2213 39.1397C19.1666 39.0388 19.0829 38.9551 18.97 38.8886C18.8495 38.8176 18.7264 38.7845 18.6006 38.7894C18.4755 38.7932 18.3596 38.8273 18.253 38.8917C18.148 38.9556 18.062 39.0432 17.9951 39.1543L17.7907 39.5012C17.705 39.6467 17.658 39.7872 17.6498 39.9228C17.6422 40.0572 17.6699 40.1803 17.7328 40.292C17.7963 40.4025 17.8921 40.4956 18.0203 40.5711C18.106 40.6216 18.1907 40.6554 18.2742 40.6724C18.3584 40.6884 18.4401 40.6876 18.5193 40.6699C18.5984 40.6522 18.6719 40.6157 18.7395 40.5605L19.2534 40.9467C19.133 41.0717 18.9919 41.1597 18.8302 41.2107C18.6703 41.2612 18.4973 41.2719 18.3112 41.2427C18.1257 41.2124 17.9358 41.14 17.7415 41.0255Z" fill="black"/>
<path d="M13.9215 37.0954L16.6983 34.3984L17.7097 35.4397C17.9169 35.653 18.0536 35.868 18.12 36.0846C18.1872 36.3021 18.1899 36.5129 18.1281 36.717C18.0681 36.921 17.9495 37.1091 17.7724 37.2812C17.5943 37.4541 17.4029 37.5663 17.1981 37.6177C16.995 37.6691 16.7867 37.6562 16.5731 37.5792C16.3603 37.5012 16.1504 37.3556 15.9432 37.1422L15.2228 36.4006L15.6404 35.995L16.2949 36.6688C16.4161 36.7936 16.5325 36.879 16.6441 36.9252C16.7566 36.9705 16.8647 36.9797 16.9685 36.9527C17.074 36.9257 17.1761 36.8644 17.2746 36.7687C17.3731 36.673 17.4383 36.5719 17.4702 36.4654C17.5029 36.3581 17.4987 36.2471 17.4576 36.1324C17.4174 36.0169 17.3363 35.8963 17.2143 35.7706L16.7666 35.3097L14.4101 37.5984L13.9215 37.0954ZM16.573 37.3078L15.9824 39.2173L15.4372 38.656L16.0397 36.7587L16.573 37.3078Z" fill="black"/>
<g clip-path="url(#clip2_1743_3276)">
<path d="M14.7058 22.5264C14.5869 22.2855 14.2431 22.2855 14.1241 22.5264L13.5576 23.6744L12.2908 23.8584C12.0248 23.8969 11.9184 24.2241 12.111 24.4117L13.0276 25.3052L12.8114 26.5666C12.7657 26.8318 13.044 27.0339 13.2818 26.9087L14.4149 26.3129L15.5479 26.9087C15.7858 27.0336 16.064 26.8318 16.0186 26.5668L15.8023 25.3052L16.7189 24.4115C16.9111 24.2241 16.8052 23.8971 16.539 23.8584L15.2726 23.6744L14.7056 22.5264H14.7058ZM11.8114 22.6896C11.7816 22.7269 11.7679 22.7746 11.7732 22.8221C11.7785 22.8695 11.8025 22.913 11.8398 22.9428L12.4404 23.4233C12.4589 23.4386 12.4801 23.4501 12.503 23.4571C12.5259 23.4641 12.55 23.4664 12.5738 23.464C12.5977 23.4616 12.6208 23.4545 12.6418 23.443C12.6628 23.4316 12.6814 23.416 12.6963 23.3973C12.7113 23.3786 12.7224 23.3571 12.7289 23.3341C12.7355 23.3111 12.7374 23.287 12.7345 23.2632C12.7317 23.2394 12.7241 23.2165 12.7122 23.1956C12.7004 23.1748 12.6845 23.1566 12.6656 23.142L12.0649 22.6615C12.0464 22.6466 12.0252 22.6356 12.0025 22.629C11.9797 22.6224 11.9559 22.6204 11.9324 22.623C11.9088 22.6256 11.886 22.6328 11.8653 22.6442C11.8445 22.6557 11.8262 22.6711 11.8114 22.6896ZM17.0183 26.1581C17.0481 26.1208 17.0619 26.0732 17.0566 26.0257C17.0514 25.9782 17.0275 25.9348 16.9902 25.9049L16.3895 25.4244C16.3522 25.3945 16.3046 25.3807 16.257 25.3859C16.2095 25.3912 16.1661 25.4151 16.1362 25.4524C16.1063 25.4897 16.0924 25.5373 16.0977 25.5849C16.1029 25.6324 16.1268 25.6759 16.1642 25.7057L16.7648 26.1862C16.7833 26.2011 16.8045 26.2121 16.8272 26.2187C16.85 26.2253 16.8738 26.2274 16.8974 26.2247C16.9209 26.2221 16.9437 26.2149 16.9644 26.2035C16.9852 26.192 17.0035 26.1766 17.0183 26.1581ZM11.8398 25.9049C11.8208 25.9195 11.805 25.9378 11.7931 25.9586C11.7813 25.9794 11.7737 26.0024 11.7708 26.0261C11.768 26.0499 11.7699 26.074 11.7764 26.097C11.783 26.1201 11.7941 26.1416 11.809 26.1603C11.824 26.179 11.8425 26.1945 11.8636 26.2059C11.8846 26.2174 11.9077 26.2245 11.9315 26.227C11.9553 26.2294 11.9794 26.227 12.0023 26.22C12.0252 26.213 12.0465 26.2016 12.0649 26.1862L12.6656 25.7057C12.7019 25.6756 12.7249 25.6323 12.7296 25.5854C12.7344 25.5384 12.7205 25.4915 12.6911 25.4546C12.6616 25.4177 12.6188 25.3939 12.5719 25.3883C12.5251 25.3826 12.4778 25.3956 12.4404 25.4244L11.8398 25.9049ZM17.0183 22.6893C17.0481 22.7266 17.0619 22.7743 17.0566 22.8218C17.0514 22.8693 17.0275 22.9127 16.9902 22.9426L16.3895 23.4231C16.371 23.4379 16.3498 23.4489 16.3271 23.4555C16.3044 23.4621 16.2806 23.4641 16.257 23.4615C16.2335 23.4589 16.2107 23.4517 16.19 23.4403C16.1693 23.4289 16.151 23.4136 16.1362 23.3951C16.1214 23.3766 16.1104 23.3554 16.1038 23.3327C16.0972 23.3099 16.0951 23.2861 16.0977 23.2626C16.1003 23.2391 16.1075 23.2163 16.1189 23.1956C16.1303 23.1748 16.1457 23.1565 16.1642 23.1417L16.7648 22.6612C16.7833 22.6464 16.8045 22.6354 16.8272 22.6288C16.85 22.6222 16.8738 22.6201 16.8974 22.6227C16.9209 22.6253 16.9437 22.6326 16.9644 22.644C16.9852 22.6554 17.0035 22.6708 17.0183 22.6893Z" fill="black"/>
</g>
<g clip-path="url(#clip3_1743_3276)">
<path d="M40.8777 22.5264C40.7588 22.2855 40.4149 22.2855 40.296 22.5264L39.7295 23.6744L38.4626 23.8584C38.1967 23.8969 38.0902 24.2241 38.2829 24.4117L39.1995 25.3052L38.9833 26.5666C38.9376 26.8318 39.2158 27.0339 39.4537 26.9087L40.5867 26.3129L41.7198 26.9087C41.9576 27.0336 42.2358 26.8318 42.1904 26.5668L41.9742 25.3052L42.8908 24.4115C43.083 24.2241 42.977 23.8971 42.7108 23.8584L41.4444 23.6744L40.8774 22.5264H40.8777ZM37.9833 22.6896C37.9535 22.7269 37.9397 22.7746 37.9451 22.8221C37.9504 22.8695 37.9743 22.913 38.0117 22.9428L38.6123 23.4233C38.6307 23.4386 38.652 23.4501 38.6749 23.4571C38.6978 23.4641 38.7219 23.4664 38.7457 23.464C38.7695 23.4616 38.7926 23.4545 38.8137 23.443C38.8347 23.4316 38.8532 23.416 38.8682 23.3973C38.8832 23.3786 38.8942 23.3571 38.9008 23.3341C38.9074 23.3111 38.9093 23.287 38.9064 23.2632C38.9035 23.2394 38.896 23.2165 38.8841 23.1956C38.8723 23.1748 38.8564 23.1566 38.8374 23.142L38.2368 22.6615C38.2183 22.6466 38.1971 22.6356 38.1743 22.629C38.1516 22.6224 38.1278 22.6204 38.1042 22.623C38.0807 22.6256 38.0579 22.6328 38.0371 22.6442C38.0164 22.6557 37.9981 22.6711 37.9833 22.6896ZM43.1901 26.1581C43.22 26.1208 43.2338 26.0732 43.2285 26.0257C43.2232 25.9782 43.1993 25.9348 43.162 25.9049L42.5614 25.4244C42.5241 25.3945 42.4764 25.3807 42.4289 25.3859C42.3814 25.3912 42.3379 25.4151 42.308 25.4524C42.2782 25.4897 42.2643 25.5373 42.2696 25.5849C42.2748 25.6324 42.2987 25.6759 42.336 25.7057L42.9367 26.1862C42.9552 26.2011 42.9764 26.2121 42.9991 26.2187C43.0219 26.2253 43.0457 26.2274 43.0692 26.2247C43.0928 26.2221 43.1156 26.2149 43.1363 26.2035C43.1571 26.192 43.1754 26.1766 43.1901 26.1581ZM38.0117 25.9049C37.9927 25.9195 37.9768 25.9378 37.965 25.9586C37.9531 25.9794 37.9456 26.0024 37.9427 26.0261C37.9398 26.0499 37.9417 26.074 37.9483 26.097C37.9549 26.1201 37.9659 26.1416 37.9809 26.1603C37.9959 26.179 38.0144 26.1945 38.0354 26.2059C38.0565 26.2174 38.0796 26.2245 38.1034 26.227C38.1272 26.2294 38.1513 26.227 38.1742 26.22C38.1971 26.213 38.2184 26.2016 38.2368 26.1862L38.8374 25.7057C38.8737 25.6756 38.8967 25.6323 38.9015 25.5854C38.9063 25.5384 38.8924 25.4915 38.8629 25.4546C38.8334 25.4177 38.7907 25.3939 38.7438 25.3883C38.6969 25.3826 38.6497 25.3956 38.6123 25.4244L38.0117 25.9049ZM43.1901 22.6893C43.22 22.7266 43.2338 22.7743 43.2285 22.8218C43.2232 22.8693 43.1993 22.9127 43.162 22.9426L42.5614 23.4231C42.5429 23.4379 42.5217 23.4489 42.499 23.4555C42.4763 23.4621 42.4524 23.4641 42.4289 23.4615C42.4054 23.4589 42.3826 23.4517 42.3619 23.4403C42.3411 23.4289 42.3228 23.4136 42.308 23.3951C42.2932 23.3766 42.2822 23.3554 42.2756 23.3327C42.269 23.3099 42.267 23.2861 42.2696 23.2626C42.2722 23.2391 42.2794 23.2163 42.2908 23.1956C42.3022 23.1748 42.3176 23.1565 42.336 23.1417L42.9367 22.6612C42.9552 22.6464 42.9764 22.6354 42.9991 22.6288C43.0219 22.6222 43.0457 22.6201 43.0692 22.6227C43.0928 22.6253 43.1156 22.6326 43.1363 22.644C43.1571 22.6554 43.1754 22.6708 43.1901 22.6893Z" fill="black"/>
</g>
</g>
<defs>
<linearGradient id="paint0_linear_1743_3276" x1="27.4994" y1="2.04297" x2="27.4994" y2="54.8252" gradientUnits="userSpaceOnUse">
<stop stop-color="#29E337"/>
<stop offset="1" stop-color="#76FF80"/>
</linearGradient>
<clipPath id="clip0_1743_3276">
<rect width="55" height="55" fill="white" transform="translate(0 0.935547)"/>
</clipPath>
<clipPath id="clip1_1743_3276">
<rect width="9.75807" height="9.75807" fill="white" transform="translate(22.6211 23.5547)"/>
</clipPath>
<clipPath id="clip2_1743_3276">
<rect width="5.76613" height="5.76613" fill="white" transform="translate(11.5312 21.7812)"/>
</clipPath>
<clipPath id="clip3_1743_3276">
<rect width="5.76613" height="5.76613" fill="white" transform="translate(37.7031 21.7812)"/>
</clipPath>
</defs>
</svg>
