<svg width="24" height="24" viewBox="0 0 24 24" fill="none" xmlns="http://www.w3.org/2000/svg">
<path fill-rule="evenodd" clip-rule="evenodd" d="M17.415 14.3821C17.117 14.233 15.656 13.515 15.384 13.4151C15.112 13.316 14.914 13.267 14.715 13.565C14.517 13.861 13.948 14.5311 13.775 14.729C13.601 14.928 13.428 14.952 13.131 14.804C12.8339 14.6541 11.876 14.341 10.741 13.3291C9.858 12.541 9.26099 11.568 9.088 11.2701C8.915 10.973 9.06899 10.812 9.218 10.664C9.352 10.531 9.515 10.317 9.664 10.144C9.81299 9.97004 9.862 9.84604 9.961 9.64704C10.061 9.44904 10.011 9.27604 9.936 9.12704C9.862 8.97805 9.268 7.51504 9.02 6.92005C8.779 6.34104 8.534 6.42004 8.352 6.41005C8.178 6.40204 7.98 6.40004 7.782 6.40004C7.584 6.40004 7.262 6.47404 6.99 6.77204C6.71699 7.06904 5.95 7.78804 5.95 9.25104C5.95 10.7131 7.014 12.1261 7.163 12.325C7.312 12.523 9.258 15.5251 12.239 16.812C12.949 17.1181 13.502 17.3011 13.933 17.437C14.645 17.664 15.293 17.6321 15.805 17.5551C16.375 17.47 17.563 16.836 17.811 16.1421C18.058 15.4481 18.058 14.8531 17.984 14.729C17.9099 14.605 17.713 14.5311 17.415 14.3821ZM11.993 21.785H11.989C10.2184 21.7853 8.48037 21.3094 6.95699 20.407L6.59699 20.1931L2.855 21.175L3.854 17.527L3.619 17.153C2.62914 15.5774 2.10529 13.7538 2.108 11.893C2.11 6.44304 6.544 2.00904 11.997 2.00904C14.637 2.00904 17.119 3.03904 18.985 4.90704C19.9054 5.82362 20.6349 6.91361 21.1313 8.11394C21.6277 9.31427 21.8811 10.6011 21.877 11.9C21.875 17.35 17.441 21.785 11.993 21.785ZM20.405 3.48805C19.3032 2.37896 17.9923 1.49958 16.5481 0.900841C15.1039 0.302105 13.5553 -0.00407624 11.992 4.09775e-05C5.438 4.09775e-05 0.102 5.33504 0.1 11.892C0.096963 13.9787 0.644375 16.0294 1.687 17.837L0 24L6.304 22.3461C8.04788 23.2962 10.0021 23.794 11.988 23.794H11.993C18.547 23.794 23.883 18.459 23.885 11.9011C23.8898 10.3383 23.5848 8.79015 22.9874 7.34608C22.3901 5.90201 21.5123 4.59071 20.405 3.48805Z" fill="white"/>
</svg>
